# xmcd
#
# Track frame offsets:
#	150
#	24968
#	49295
#	70665
#	92361
#	110552
#	133404
#	156111
#	175308
#	193226
#	214133
#	234314
#	259415
#
# Disc length: 3744 seconds
#
# Revision: 0
# Processed by: cddbd v1.5.2PL0 Copyright (c) Steve Scherf et al.
# Submitted via: dBpowerAMP V4.0
#
DISCID=b90e9e0d
DTITLE=I See Hawks In LA - California Country
DYEAR=2006
DGENRE=Country
TTITLE0=Motorcycle Mama
TTITLE1=Raised By Hippies
TTITLE2=Midnight in Orlando
TTITLE3=Slash From Guns N' Roses
TTITLE4=California Country
TTITLE5=Golden Girl
TTITLE6=Byrd From West Virginia
TTITLE7=Jackpot!
TTITLE8=The Donkey Song
TTITLE9=Houston Romance
TTITLE10=Hard Times (Are Here Again)
TTITLE11=Barrier Reef
TTITLE12=Take My Rest
EXTD=
EXTT0=
EXTT1=
EXTT2=
EXTT3=
EXTT4=
EXTT5=
EXTT6=
EXTT7=
EXTT8=
EXTT9=
EXTT10=
EXTT11=
EXTT12=
PLAYORDER=
